# xmcd CD database file
#
# Track frame offsets:
#	150
#	16421
#	43765
#	62247
#	89730
#	117545
#	139788
#	163979
#	192011
#	254619
#
# Disc length: 4246 seconds
#
# Revision: 0
# Processed by: cddbd v1.4PL0 Copyright (c) Steve Scherf et al.
# Submitted via: Feurio! 1.65 - http://www.feurio.com
#
DISCID=9710940a
DTITLE=Marshall Tucker Band - Nassau Coliseum, Uniondale, NY - March 13 1976
DYEAR=1900
DGENRE=Country
TTITLE0=Hillbilly band
TTITLE1=Blue ridge mountain sky
TTITLE2=Long hard ride
TTITLE3=Searchin' for a rainbow
TTITLE4=Can't you see
TTITLE5=Bound and determined
TTITLE6=Fire on the mountain
TTITLE7=Take the highway
TTITLE8=24 Hours at a time
TTITLE9=Everyday I have the blues
EXTD=
EXTT0=
EXTT1=
EXTT2=
EXTT3=
EXTT4=
EXTT5=
EXTT6=
EXTT7=
EXTT8=
EXTT9=
PLAYORDER=
